<?xml version="1.0" encoding="UTF-8" standalone="no"?>
<svg
   xmlns:dc="http://purl.org/dc/elements/1.1/"
   xmlns:cc="http://creativecommons.org/ns#"
   xmlns:rdf="http://www.w3.org/1999/02/22-rdf-syntax-ns#"
   xmlns:svg="http://www.w3.org/2000/svg"
   xmlns="http://www.w3.org/2000/svg"
   xmlns:sodipodi="http://sodipodi.sourceforge.net/DTD/sodipodi-0.dtd"
   xmlns:inkscape="http://www.inkscape.org/namespaces/inkscape"
   id="weather-icon-cloudy"
   class="weather-icon weather-icon-white cloudy"
   viewBox="0 0 64 64"
   version="1.1"
   sodipodi:docname="ic_offline.svg"
   inkscape:version="0.92.3 (2405546, 2018-03-11)">
  <metadata
     id="metadata3731">
    <rdf:RDF>
      <cc:Work
         rdf:about="">
        <dc:format>image/svg+xml</dc:format>
        <dc:type
           rdf:resource="http://purl.org/dc/dcmitype/StillImage" />
        <dc:title></dc:title>
      </cc:Work>
    </rdf:RDF>
  </metadata>
  <defs
     id="defs3729" />
  <sodipodi:namedview
     pagecolor="#ffffff"
     bordercolor="#666666"
     borderopacity="1"
     objecttolerance="10"
     gridtolerance="10"
     guidetolerance="10"
     inkscape:pageopacity="0"
     inkscape:pageshadow="2"
     inkscape:window-width="1920"
     inkscape:window-height="1001"
     id="namedview3727"
     showgrid="false"
     inkscape:measure-start="31.2871,16.5149"
     inkscape:measure-end="31.2475,13.802"
     inkscape:zoom="11.313709"
     inkscape:cx="25.828972"
     inkscape:cy="31.07939"
     inkscape:window-x="-9"
     inkscape:window-y="-9"
     inkscape:window-maximized="1"
     inkscape:current-layer="layer1" />
  <style
     id="style3723">.st0{fill:#d8d8d8;}</style>
  <g
     inkscape:groupmode="layer"
     id="layer1"
     inkscape:label="Background" />
  <g
     inkscape:groupmode="layer"
     id="layer2"
     inkscape:label="Cloud"
     sodipodi:insensitive="true">
    <path
       style="fill:#d8d8d8"
       d="m 33.859375,12.027344 -1.244141,4.513672 C 30.19143,17.557448 28.104171,19.273249 26.599609,21.5 c -1.2,-0.5 -2.399218,-0.800781 -3.699218,-0.800781 -5.1,0 -9.300782,4.200781 -9.300782,9.300781 v 0.300781 C 9.4996102,31.700781 6.5996094,35.6 6.5996094,40 c 0,5.6 4.6011716,10.199219 10.2011716,10.199219 h 6.544922 l -0.654297,2.378906 2.3125,0.636719 0.830078,-3.015625 0.744141,-2.699219 0.681641,-2.474609 7.283203,-26.4375 0.787109,-2.861329 0.84375,-3.060546 z m 6.291016,0.0918 -0.951172,3.453125 -0.707031,2.568359 L 30.404297,47.5 l -0.744141,2.699219 -0.679687,2.46875 2.314453,0.638672 0.855469,-3.107422 h 17.548828 c 5.2,0 9.501562,-4.3 9.601562,-9.5 0,-4.8 -3.600781,-8.798438 -8.300781,-9.398438 0.1,-0.8 0.199219,-1.60039 0.199219,-2.40039 0,-6.093411 -4.070442,-11.230823 -9.638672,-12.857422 l 0.904297,-3.285157 z m 0.710937,6.458984 c 4.361695,1.351484 7.539063,5.422638 7.539063,10.222656 0,1.1 -0.2,2.198828 -0.5,3.298828 L 47.300781,34 l 2,-0.09961 h 0.298828 c 3.7,0 6.800782,2.998828 6.800782,6.798828 0,3.7 -3.000782,6.800781 -6.800782,6.800781 H 32.894531 Z M 31.667969,19.982422 24.089844,47.5 h -7.390625 c -4.1,0 -7.5000002,-3.3 -7.5000002,-7.5 -3e-7,-3.6 2.6015622,-6.700391 6.1015622,-7.400391 l 1.298828,-0.199218 -0.199218,-1.300782 c -0.1,-0.4 -0.09961,-0.799609 -0.09961,-1.099609 0,-3.6 2.99961,-6.599609 6.59961,-6.599609 1.2,0 2.40039,0.3 3.40039,1 L 27.5,25.099609 28.199219,23.800781 c 0.850174,-1.56611 2.054293,-2.853454 3.46875,-3.818359 z"
       id="cloudy"
       inkscape:connector-curvature="0" />
  </g>
</svg>
